<?xml version="1.0" encoding="utf-8"?>
<!-- Generator: Adobe Illustrator 19.1.0, SVG Export Plug-In . SVG Version: 6.00 Build 0)  -->
<svg version="1.1" id="Calque_1" xmlns="http://www.w3.org/2000/svg" xmlns:xlink="http://www.w3.org/1999/xlink" x="0px" y="0px"
	 viewBox="0 337 612 119" style="enable-background:new 0 337 612 119;" xml:space="preserve">
<style type="text/css">
	.st0{fill:#002638;}
	.st1{fill:#E4342C;}
</style>
<path class="st0" d="M192.7,373.1v53.5h-53.3v-53.7h-0.1c-8.6,0-15.6,6-15.6,13.5v40.3c0,7.5,7,13.5,15.6,13.5h0.1h69v-67.1H192.7z"
	/>
<path class="st0" d="M255.1,386.5v53.7H255c-8.6,0-15.6-6.1-15.6-13.5v-40.3c0-7.5,7-13.5,15.6-13.5h0.1h46.4v13.6H255.1z"/>
<path class="st0" d="M449.6,440.2L449.6,440.2c-8.7,0-15.7-6.1-15.7-13.5v-66.6c0-7.5,7-13.5,15.6-13.5h0.1V440.2z"/>
<path class="st0" d="M476.8,426.7c0,7.5,7,13.5,15.6,13.5h0.1v-53.5h-15.7V426.7z"/>
<path class="st0" d="M534.4,399.5v-13.1h55.3v-13.2h-55.4c-8.3,0-15.1,5.9-15.1,13.1v13.3c0,7.3,6.8,13.1,15.1,13.1h52.1v12.1h-67.2
	v0.1c0,7.2,6.8,13.1,15.1,13.1h67.3v-38.5H534.4z"/>
<path class="st1" d="M492.6,359.5L492.6,359.5c-8.7,0-15.7,6-15.7,13.5v0.1h15.7V359.5z"/>
<path class="st0" d="M25.9,398.7v-13.2h53.8v13.1H25.9V398.7z M79.7,371.7H25.8c-8.8,0-15.9,6.2-15.9,13.8v13.2v13.9v13.5
	c0,7.6,7.1,13.8,15.9,13.8h0.1h56.5V426H25.9v-13.5h53.8h16v-13.8v-13.2v-13.8H79.7z"/>
<path class="st0" d="M335.7,399.6v-12.9h52.8v12.9H335.7z M388.5,373.1h-52.9c-8.6,0-15.6,6.1-15.6,13.5v13v13.6v13.3
	c0,7.5,7,13.5,15.6,13.5h0.1h55.5v-13.6h-55.5v-13.2h52.8h15.7v-13.6v-12.9v-13.6H388.5z"/>
</svg>
